<?xml version="1.0" standalone="no"?><!DOCTYPE svg PUBLIC "-//W3C//DTD SVG 1.1//EN" "http://www.w3.org/Graphics/SVG/1.1/DTD/svg11.dtd"><svg t="1638250564021" class="icon" viewBox="0 0 1024 1024" version="1.1" xmlns="http://www.w3.org/2000/svg" p-id="5729" width="16" height="16" xmlns:xlink="http://www.w3.org/1999/xlink"><defs><style type="text/css"></style></defs><path d="M896.576 884l-3.424 3.424q-64.576 65.152-148 100-88 36.576-181.152 36.576-94.272 0-181.152-36.576-84.576-36-148-100-64.576-64-100-147.424-24-58.848-30.848-108-2.272-16 27.424-20.576 29.152-4.576 32 11.424 0.576 0.576 0.576 2.272 10.272 51.424 26.272 90.848 28.576 70.848 86.848 129.152 56 56 129.152 86.848 75.424 32 157.728 32 81.728 0 157.728-32 73.152-31.424 128.576-86.848l3.424-3.424q5.728-5.728 14.272-3.424 6.848 1.728 18.848 12.576 20.576 21.152 9.728 33.152zM626.848 532.576l-37.728 37.728 36 36q12 12-4 28-9.728 9.728-18.272 9.728-5.728 0-10.848-5.728l-35.424-34.848-37.728 37.728q-2.848 2.848-8.576 2.848-8.576 0-17.728-9.152l-1.152-1.152q-10.272-8.576-10.272-16.576 0-4 4.576-9.728l37.728-37.152-37.728-37.728q-9.152-9.152 8-25.728 10.272-10.272 17.728-10.272 3.424 0 7.424 2.848l37.152 37.728 37.152-37.152q10.272-9.728 27.424 7.424 15.424 15.424 6.272 25.152zM896 565.152q0 67.424-26.272 130.272-25.728 60-72 106.272-45.728 45.728-106.848 72t-130.272 26.272-130.272-26.272-106.848-72q-46.848-46.848-71.424-106.272-8.576-18.272-8.576-22.848l-0.576 0q-5.152-15.424 24.576-25.152 28.576-9.152 34.272 6.848 21.152 56.576 55.424 95.424l0.576 0 0-194.848q1.728-77.728 58.272-132.576 60-58.848 144.576-58.848 84 0 143.424 58.848t59.424 142.272q0 84-59.712 143.424t-143.136 59.424q-33.152 0-64-9.152-16-6.272-7.424-34.848 9.152-29.152 25.152-24.576l8 1.728q8 1.728 18.56 3.424t17.44 1.728q59.424 0 100.576-40.864t41.152-99.712q0-57.728-41.152-97.728-40.576-40.576-100-40.576-61.152 0-101.728 45.728-36.576 41.152-36.576 91.424l0 236q62.848 38.272 138.272 38.272 54.848 0 105.728-20.864t89.152-59.136 59.136-88.576 20.864-104.576q0-113.152-80.576-193.728-80-80-193.728-80-114.272 0-194.272 80-30.272 30.272-44 49.728l-1.152 1.152q-4.576 6.272-7.424 8.864t-12.288 5.44-22.016-1.728q-12-2.848-20.864-9.44t-8.864-15.136l0-388.576q0-8.576 6.016-15.136t15.712-6.56l501.152 0q17.152 0 17.152 31.424t-17.152 31.424l-463.424 0 0 276 0.576 0q22.848-24 58.272-48t61.728-34.848q62.272-26.272 132-26.272 69.152 0 130.272 26.272t106.848 72q46.272 46.272 72 106.272 26.272 64 26.272 130.848zM878.272 233.152q5.152 4.576 5.152 10.272t-3.136 10.272-9.44 12q-14.848 14.848-22.272 14.848-5.152 0-9.152-4-60.576-52-118.272-76-73.152-32-157.728-32-76 0-149.728 28-15.424 5.728-25.728-21.152-5.152-14.272-4.576-21.728 1.728-9.152 9.152-11.424 74.272-32.576 170.848-32.576 93.728 0 180.576 36.576 78.272 33.152 134.272 86.848z" p-id="5730" fill="#ffffff"></path></svg>